<?xml version="1.0" standalone="no"?>
        <!DOCTYPE svg PUBLIC "-//W3C//DTD SVG 1.1//EN" 
        "http://www.w3.org/Graphics/SVG/1.1/DTD/svg11.dtd"><svg id="changeColor" fill="#DC7633" xmlns="http://www.w3.org/2000/svg" xmlns:xlink="http://www.w3.org/1999/xlink" width="200" zoomAndPan="magnify" viewBox="0 0 375 374.9999" height="200" preserveAspectRatio="xMidYMid meet" version="1.0"><defs><path id="pathAttribute" d="M 35 24.648438 L 340 24.648438 L 340 357.648438 L 35 357.648438 Z M 35 24.648438 " stroke="#aa3131"></path></defs><g><path id="pathAttribute" d="M 187.503906 357.648438 C 103.28125 357.648438 35.015625 289.320312 35.015625 205.023438 L 35.015625 76.640625 C 35.015625 72.957031 36.480469 69.433594 39.078125 66.832031 L 77.164062 28.710938 C 79.761719 26.109375 83.300781 24.648438 86.964844 24.648438 L 288.039062 24.648438 C 291.722656 24.648438 295.242188 26.109375 297.84375 28.710938 L 335.925781 66.832031 C 338.527344 69.433594 339.988281 72.957031 339.988281 76.640625 L 339.988281 205.023438 C 339.988281 289.320312 271.722656 357.648438 187.503906 357.648438 " fill-opacity="1" fill-rule="nonzero" stroke="#aa3131"></path></g><g id="inner-icon" transform="translate(85, 75)"> <svg width="199.8" height="199.8" stroke-width="1.5" viewBox="0 0 24 24" fill="none" xmlns="http://www.w3.org/2000/svg" id="IconChangeColor"> <circle cx="12" cy="12" r="10" stroke="currentColor" stroke-width="1.5"></circle> <path d="M7.63262 3.06689C8.98567 3.35733 9.99999 4.56025 9.99999 6.00007C9.99999 7.65693 8.65685 9.00007 6.99999 9.00007C5.4512 9.00007 4.17653 7.82641 4.01685 6.31997" stroke="currentColor" stroke-width="1.5" id="mainIconPathAttribute" fill="#03989e"></path> <path d="M22 13.0505C21.3647 12.4022 20.4793 12 19.5 12C17.567 12 16 13.567 16 15.5C16 17.2632 17.3039 18.7219 19 18.9646" stroke="currentColor" stroke-width="1.5" id="mainIconPathAttribute" fill="#03989e"></path> <path d="M14.5 8.51L14.51 8.49889" stroke="currentColor" stroke-linecap="round" stroke-linejoin="round" id="mainIconPathAttribute" fill="#03989e"></path> <path d="M10 17C11.1046 17 12 16.1046 12 15C12 13.8954 11.1046 13 10 13C8.89543 13 8 13.8954 8 15C8 16.1046 8.89543 17 10 17Z" stroke="currentColor" stroke-linecap="round" stroke-linejoin="round" id="mainIconPathAttribute" fill="#03989e"></path> </svg> </g></svg>