<?xml version="1.0" standalone="no"?>
        <!DOCTYPE svg PUBLIC "-//W3C//DTD SVG 1.1//EN" 
        "http://www.w3.org/Graphics/SVG/1.1/DTD/svg11.dtd"><svg id="changeColor" fill="#DC7633" xmlns="http://www.w3.org/2000/svg" xmlns:xlink="http://www.w3.org/1999/xlink" width="200" zoomAndPan="magnify" viewBox="0 0 375 374.9999" height="200" preserveAspectRatio="xMidYMid meet" version="1.0"><defs><path id="pathAttribute" d="M 35 24.648438 L 340 24.648438 L 340 357.648438 L 35 357.648438 Z M 35 24.648438 "></path></defs><g><path id="pathAttribute" d="M 187.503906 357.648438 C 103.28125 357.648438 35.015625 289.320312 35.015625 205.023438 L 35.015625 76.640625 C 35.015625 72.957031 36.480469 69.433594 39.078125 66.832031 L 77.164062 28.710938 C 79.761719 26.109375 83.300781 24.648438 86.964844 24.648438 L 288.039062 24.648438 C 291.722656 24.648438 295.242188 26.109375 297.84375 28.710938 L 335.925781 66.832031 C 338.527344 69.433594 339.988281 72.957031 339.988281 76.640625 L 339.988281 205.023438 C 339.988281 289.320312 271.722656 357.648438 187.503906 357.648438 " fill-opacity="1" fill-rule="nonzero"></path></g><g id="inner-icon" transform="translate(85, 75)"> <svg xmlns="http://www.w3.org/2000/svg" width="199.8" height="199.8" fill="currentColor" class="bi bi-sun" viewBox="0 0 16 16" id="IconChangeColor"> <path d="M8 11a3 3 0 1 1 0-6 3 3 0 0 1 0 6zm0 1a4 4 0 1 0 0-8 4 4 0 0 0 0 8zM8 0a.5.5 0 0 1 .5.5v2a.5.5 0 0 1-1 0v-2A.5.5 0 0 1 8 0zm0 13a.5.5 0 0 1 .5.5v2a.5.5 0 0 1-1 0v-2A.5.5 0 0 1 8 13zm8-5a.5.5 0 0 1-.5.5h-2a.5.5 0 0 1 0-1h2a.5.5 0 0 1 .5.5zM3 8a.5.5 0 0 1-.5.5h-2a.5.5 0 0 1 0-1h2A.5.5 0 0 1 3 8zm10.657-5.657a.5.5 0 0 1 0 .707l-1.414 1.415a.5.5 0 1 1-.707-.708l1.414-1.414a.5.5 0 0 1 .707 0zm-9.193 9.193a.5.5 0 0 1 0 .707L3.05 13.657a.5.5 0 0 1-.707-.707l1.414-1.414a.5.5 0 0 1 .707 0zm9.193 2.121a.5.5 0 0 1-.707 0l-1.414-1.414a.5.5 0 0 1 .707-.707l1.414 1.414a.5.5 0 0 1 0 .707zM4.464 4.465a.5.5 0 0 1-.707 0L2.343 3.05a.5.5 0 1 1 .707-.707l1.414 1.414a.5.5 0 0 1 0 .708z" id="mainIconPathAttribute" fill="yellow"></path> </svg> </g></svg>